# xmcd
#
# Track frame offsets: 
#        153
#        18878
#        42565
#        63998
#        82533
#        101453
#        120440
#        133485
#        154490
#        175435
#        192150
#
# Disc length: 2790 seconds
#
# Revision: 0
# Processed by: cddbd v1.5.1PL0 Copyright (c) Steve Scherf et al.
# Submitted via: ExactAudioCopy v0.95a2
#
DISCID=8d0ae40b
DTITLE=Eddie Kirkland - Have Mercy
DYEAR=1993
DGENRE=Blues
TTITLE0=Eddie's Calling You
TTITLE1=Young Man Young Woman Blues
TTITLE2=Tomorrow May Bring a Better Day
TTITLE3=Golden Sun
TTITLE4=Mary Lou
TTITLE5=Somewhere in Your Heart
TTITLE6=Crying Time
TTITLE7=I've Got a Secret
TTITLE8=I Hear Music
TTITLE9=Too Far Gone [#]
TTITLE10=Love Light [#]
EXTD=
EXTT0=
EXTT1=
EXTT2=
EXTT3=
EXTT4=
EXTT5=
EXTT6=
EXTT7=
EXTT8=
EXTT9=
EXTT10=
PLAYORDER=
